<?xml version="1.0" encoding="UTF-8" standalone="no"?>
<!-- Created with Inkscape (http://www.inkscape.org/) --><svg height="109.57126" id="pause" version="1.0" width="1145.3739" xmlns="http://www.w3.org/2000/svg" xmlns:svg="http://www.w3.org/2000/svg">
  <defs id="defs4">
    <filter id="filter3316">
      <feGaussianBlur id="feGaussianBlur3318" stdDeviation="0.58671616"/>
    </filter>
  </defs>
 <g id="layer1" transform="translate(235.96951,167.64401)">
      <g id="first" transform="translate(-85.376038,-385.15004)">
        <path d="M 211.42857,266.64789 C 211.42857,295.05111 187.12403,318.07646 157.14286,318.07646 C 127.16168,318.07646 102.85714,295.05111 102.85714,266.64789 C 102.85714,238.24467 127.16168,215.21932 157.14286,215.21932 C 187.12403,215.21932 211.42857,238.24467 211.42857,266.64789 L 211.42857,266.64789 z" id="path2383" style="fill:#000000;fill-opacity:1;fill-rule:evenodd;stroke:#000000;stroke-width:1;stroke-miterlimit:4;stroke-dasharray:none;stroke-dashoffset:0;stroke-opacity:1;filter:url(#filter3316)" transform="matrix(0.99975,0,0,1.05529,6.03929,-9.09919)"/>
        <rect height="56.782867" id="rect3237" ry="0" style="fill:#e6e6e6;fill-opacity:1;fill-rule:evenodd;stroke:#ffffff;stroke-width:0.93142003;stroke-miterlimit:4;stroke-dasharray:none;stroke-dashoffset:0;stroke-opacity:1" width="17.211435" x="170.53714" y="243.89957"/>
        <rect height="56.782581" id="rect3239" ry="0" style="fill:#e6e6e6;fill-opacity:1;fill-rule:evenodd;stroke:#ffffff;stroke-width:0.931418;stroke-miterlimit:4;stroke-dasharray:none;stroke-dashoffset:0;stroke-opacity:1" width="17.211439" x="138.53714" y="243.89986"/>
        <path d="M 162.65625,219.15629 C 133.52603,219.1563 109.875,243.47944 109.875,273.43754 C 156.77381,262.83269 168.19577,262.69279 215.40625,273.43754 C 215.40626,243.47944 191.78648,219.15629 162.65625,219.15629 z" id="path3245" style="opacity:0.5;fill:#ffffff;fill-opacity:1;fill-rule:evenodd;stroke:#000000;stroke-width:1;stroke-miterlimit:4;stroke-dashoffset:0;stroke-opacity:0.18257303"/>
      </g>
  </g>
</svg>
