<?xml version="1.0" encoding="UTF-8" standalone="no"?>
<!-- Created with Inkscape (http://www.inkscape.org/) --><svg height="109.57126" id="minus" version="1.0" width="1145.3739" xmlns="http://www.w3.org/2000/svg" xmlns:svg="http://www.w3.org/2000/svg">
  <defs id="defs4">
    <filter id="filter3316">
      <feGaussianBlur id="feGaussianBlur3318" stdDeviation="0.58671616"/>
    </filter>
  </defs>
 <g id="layer1" transform="translate(235.96951,167.64401)">
      <g id="g2784" transform="translate(544.65643,-363.63805)">
        <path d="M 211.42857,266.64789 C 211.42857,295.05111 187.12403,318.07646 157.14286,318.07646 C 127.16168,318.07646 102.85714,295.05111 102.85714,266.64789 C 102.85714,238.24467 127.16168,215.21932 157.14286,215.21932 C 187.12403,215.21932 211.42857,238.24467 211.42857,266.64789 L 211.42857,266.64789 z" id="path2776" style="fill:#000000;fill-opacity:1;fill-rule:evenodd;stroke:#000000;stroke-width:1;stroke-miterlimit:4;stroke-dasharray:none;stroke-dashoffset:0;stroke-opacity:1;filter:url(#filter3316)" transform="matrix(0.99975,0,0,1.05529,152.85864,-30.611183)"/>
        <rect height="56.782867" id="rect2778" ry="0" style="fill:#e6e6e6;fill-opacity:1;fill-rule:evenodd;stroke:#ffffff;stroke-width:0.93142003;stroke-miterlimit:4;stroke-dasharray:none;stroke-dashoffset:0;stroke-opacity:1" transform="matrix(0,1,-1,0,0,0)" width="17.211435" x="242.17395" y="-338.35364"/>
        <path d="M 309.4756,197.6443 C 280.34538,197.64431 256.69435,221.96745 256.69435,251.92555 C 303.59316,241.3207 315.01512,241.1808 362.2256,251.92555 C 362.22561,221.96745 338.60583,197.6443 309.4756,197.6443 z" id="path2782" style="opacity:0.5;fill:#ffffff;fill-opacity:1;fill-rule:evenodd;stroke:#000000;stroke-width:1;stroke-miterlimit:4;stroke-dashoffset:0;stroke-opacity:0.18257303"/>
      </g>
  </g>
</svg>
