<?xml version="1.0" encoding="UTF-8" standalone="no"?>
<!-- Created with Inkscape (http://www.inkscape.org/) --><svg height="109.57126" id="plus" version="1.0" width="1145.3739" xmlns="http://www.w3.org/2000/svg" xmlns:svg="http://www.w3.org/2000/svg">
  <defs id="defs4">
    <filter id="filter3316">
      <feGaussianBlur id="feGaussianBlur3318" stdDeviation="0.58671616"/>
    </filter>
  </defs>
 <g id="layer1" transform="translate(235.96951,167.64401)">
      <g id="g2770" transform="translate(562.00044,-385.15004)">
        <path d="M 211.42857,266.64789 C 211.42857,295.05111 187.12403,318.07646 157.14286,318.07646 C 127.16168,318.07646 102.85714,295.05111 102.85714,266.64789 C 102.85714,238.24467 127.16168,215.21932 157.14286,215.21932 C 187.12403,215.21932 211.42857,238.24467 211.42857,266.64789 L 211.42857,266.64789 z" id="path2762" style="fill:#000000;fill-opacity:1;fill-rule:evenodd;stroke:#000000;stroke-width:1;stroke-miterlimit:4;stroke-dasharray:none;stroke-dashoffset:0;stroke-opacity:1;filter:url(#filter3316)" transform="matrix(0.99975,0,0,1.05529,6.03929,-9.09919)"/>
        <path d="M 263.68594,-191.53429 L 280.89738,-191.53429 L 280.89738,-171.33857 L 300.59093,-171.86809 L 300.59093,-154.86809 L 280.89738,-154.94714 L 280.89738,-134.75142 L 263.68594,-134.75142 L 263.59093,-154.86809 L 243.59093,-154.86809 L 243.59093,-171.86809 L 263.59093,-171.86809 L 263.68594,-191.53429 z" id="rect2764" style="fill:#e6e6e6;fill-opacity:1;fill-rule:evenodd;stroke:#ffffff;stroke-width:0.93142003;stroke-miterlimit:4;stroke-dashoffset:0;stroke-opacity:1" transform="matrix(0,1,-1,0,0,0)"/>
        <path d="M 162.65625,219.15629 C 133.52603,219.1563 109.875,243.47944 109.875,273.43754 C 156.77381,262.83269 168.19577,262.69279 215.40625,273.43754 C 215.40626,243.47944 191.78648,219.15629 162.65625,219.15629 z" id="path2768" style="opacity:0.5;fill:#ffffff;fill-opacity:1;fill-rule:evenodd;stroke:#000000;stroke-width:1;stroke-miterlimit:4;stroke-dashoffset:0;stroke-opacity:0.18257303"/>
      </g>
  </g>
</svg>
